<?xml version="1.0" encoding="UTF-8"?>
<svg xmlns="http://www.w3.org/2000/svg" viewBox="0 0 64 64" role="img" aria-label="スッテ図鑑">
  <rect width="64" height="64" rx="14" fill="#f3f4f6"/>

  <!-- Eyelet ring (keep the original vibe, but smaller) -->
  <circle cx="32" cy="14" r="3.6" fill="none" stroke="#0b0b0d" stroke-width="3.6"/>
  <path d="M32 18.2v3.4" fill="none" stroke="#0b0b0d" stroke-width="3.6" stroke-linecap="round"/>

  <!-- Lure body (slender, strong taper top/bottom) -->
  <path
    d="M30 21
       H34
       C38 21 40 23.8 40 28
       V39
       C40 43.3 38.1 45.9 36.1 47.2
       C34.9 48.0 33.6 48.5 32 49.6
       C30.4 48.5 29.1 48.0 27.9 47.2
       C25.9 45.9 24 43.3 24 39
       V28
       C24 23.8 26 21 30 21
       Z"
    fill="#141418"
    stroke="#0b0b0d"
    stroke-width="3.6"
    stroke-linejoin="round"
  />

  <!-- Body details -->
  <circle cx="29.5" cy="30" r="1.6" fill="#f3f4f6"/>
  <path d="M27 27l10 5.5" fill="none" stroke="#a9afbd" stroke-width="2.2" stroke-linecap="round" opacity="0.78"/>
  <path d="M27 32.5l10 5.5" fill="none" stroke="#a9afbd" stroke-width="2.2" stroke-linecap="round" opacity="0.58"/>

  <!-- Crown hook (kanna) - U-shaped -->
  <path d="M26 49H38" fill="none" stroke="#0b0b0d" stroke-width="5" stroke-linecap="round" />
  <path d="M32 49v3" fill="none" stroke="#0b0b0d" stroke-width="5" stroke-linecap="round" />

  <!-- U hooks (2 prongs) -->
  <path d="M22 53 Q22 61 27 61 Q32 61 32 53" fill="none" stroke="#0b0b0d" stroke-width="5" stroke-linecap="round" stroke-linejoin="round" />
  <path d="M32 53 Q32 61 37 61 Q42 61 42 53" fill="none" stroke="#0b0b0d" stroke-width="5" stroke-linecap="round" stroke-linejoin="round" />
</svg>
